<mxfile host="app.diagrams.net" modified="2022-11-21T12:04:09.398Z" agent="5.0 (Windows NT 10.0; Win64; x64) AppleWebKit/537.36 (KHTML, like Gecko) Chrome/107.0.0.0 Safari/537.36" etag="oZevjiW8KHErsXRplr0E" version="20.5.3" type="github">
  <diagram id="5LBbexgIqFz3WjY0auQs" name="Stránka-1">
    <mxGraphModel dx="942" dy="427" grid="1" gridSize="10" guides="1" tooltips="1" connect="1" arrows="1" fold="1" page="1" pageScale="1" pageWidth="827" pageHeight="1169" math="0" shadow="0">
      <root>
        <mxCell id="0" />
        <mxCell id="1" parent="0" />
        <mxCell id="Yc-3bs9THZqJO7N6kJPz-1" value="" style="edgeStyle=orthogonalEdgeStyle;rounded=0;orthogonalLoop=1;jettySize=auto;html=1;" edge="1" parent="1" source="Yc-3bs9THZqJO7N6kJPz-2" target="Yc-3bs9THZqJO7N6kJPz-5">
          <mxGeometry relative="1" as="geometry" />
        </mxCell>
        <mxCell id="Yc-3bs9THZqJO7N6kJPz-2" value="" style="ellipse;whiteSpace=wrap;html=1;aspect=fixed;fillColor=#000000;" vertex="1" parent="1">
          <mxGeometry x="340" y="60" width="20" height="20" as="geometry" />
        </mxCell>
        <mxCell id="Yc-3bs9THZqJO7N6kJPz-3" style="edgeStyle=orthogonalEdgeStyle;rounded=0;orthogonalLoop=1;jettySize=auto;html=1;exitX=1;exitY=0.5;exitDx=0;exitDy=0;" edge="1" parent="1" source="Yc-3bs9THZqJO7N6kJPz-5">
          <mxGeometry relative="1" as="geometry">
            <mxPoint x="455" y="149.9999999999999" as="targetPoint" />
          </mxGeometry>
        </mxCell>
        <mxCell id="Yc-3bs9THZqJO7N6kJPz-4" style="edgeStyle=orthogonalEdgeStyle;rounded=0;orthogonalLoop=1;jettySize=auto;html=1;entryX=0.5;entryY=0;entryDx=0;entryDy=0;" edge="1" parent="1" source="Yc-3bs9THZqJO7N6kJPz-5" target="Yc-3bs9THZqJO7N6kJPz-17">
          <mxGeometry relative="1" as="geometry" />
        </mxCell>
        <mxCell id="Yc-3bs9THZqJO7N6kJPz-5" value="Zaslání dotazu senzoru systémem" style="rounded=1;whiteSpace=wrap;html=1;fillColor=#FFFFFF;" vertex="1" parent="1">
          <mxGeometry x="290" y="120" width="120" height="60" as="geometry" />
        </mxCell>
        <mxCell id="Yc-3bs9THZqJO7N6kJPz-6" value="&lt;font style=&quot;font-size: 16px&quot;&gt;Spuštění systému&lt;/font&gt;" style="text;html=1;align=center;verticalAlign=middle;resizable=0;points=[];autosize=1;strokeColor=none;fillColor=none;" vertex="1" parent="1">
          <mxGeometry x="280" y="30" width="140" height="20" as="geometry" />
        </mxCell>
        <mxCell id="Yc-3bs9THZqJO7N6kJPz-7" value="" style="edgeStyle=orthogonalEdgeStyle;rounded=0;orthogonalLoop=1;jettySize=auto;html=1;" edge="1" parent="1" source="Yc-3bs9THZqJO7N6kJPz-8" target="Yc-3bs9THZqJO7N6kJPz-13">
          <mxGeometry relative="1" as="geometry" />
        </mxCell>
        <mxCell id="Yc-3bs9THZqJO7N6kJPz-8" value="Senzor detekuje pohyb" style="rounded=1;whiteSpace=wrap;html=1;" vertex="1" parent="1">
          <mxGeometry x="290" y="300" width="120" height="60" as="geometry" />
        </mxCell>
        <mxCell id="Yc-3bs9THZqJO7N6kJPz-9" style="edgeStyle=orthogonalEdgeStyle;rounded=0;orthogonalLoop=1;jettySize=auto;html=1;entryX=1;entryY=0.5;entryDx=0;entryDy=0;endArrow=classic;endFill=1;" edge="1" parent="1" source="Yc-3bs9THZqJO7N6kJPz-10" target="Yc-3bs9THZqJO7N6kJPz-2">
          <mxGeometry relative="1" as="geometry">
            <Array as="points">
              <mxPoint x="610" y="150" />
              <mxPoint x="610" y="70" />
            </Array>
          </mxGeometry>
        </mxCell>
        <mxCell id="Yc-3bs9THZqJO7N6kJPz-10" value="Zaslání informace o poruše nadřazenému systému" style="rounded=1;whiteSpace=wrap;html=1;" vertex="1" parent="1">
          <mxGeometry x="455" y="120" width="120" height="60" as="geometry" />
        </mxCell>
        <mxCell id="Yc-3bs9THZqJO7N6kJPz-11" style="edgeStyle=orthogonalEdgeStyle;rounded=0;orthogonalLoop=1;jettySize=auto;html=1;entryX=0;entryY=0.5;entryDx=0;entryDy=0;" edge="1" parent="1" target="Yc-3bs9THZqJO7N6kJPz-2">
          <mxGeometry relative="1" as="geometry">
            <mxPoint x="350" y="560" as="sourcePoint" />
            <Array as="points">
              <mxPoint x="350" y="570" />
              <mxPoint x="250" y="570" />
              <mxPoint x="250" y="70" />
            </Array>
          </mxGeometry>
        </mxCell>
        <mxCell id="Yc-3bs9THZqJO7N6kJPz-12" style="edgeStyle=orthogonalEdgeStyle;rounded=0;orthogonalLoop=1;jettySize=auto;html=1;entryX=0.5;entryY=0;entryDx=0;entryDy=0;endArrow=none;endFill=0;" edge="1" parent="1" source="Yc-3bs9THZqJO7N6kJPz-13" target="Yc-3bs9THZqJO7N6kJPz-19">
          <mxGeometry relative="1" as="geometry" />
        </mxCell>
        <mxCell id="Yc-3bs9THZqJO7N6kJPz-13" value="Senzor zašle systému informaci o detekci pohybu" style="rounded=1;whiteSpace=wrap;html=1;" vertex="1" parent="1">
          <mxGeometry x="290" y="390" width="120" height="60" as="geometry" />
        </mxCell>
        <mxCell id="Yc-3bs9THZqJO7N6kJPz-14" value="Senzor nereaguje" style="text;html=1;strokeColor=none;fillColor=none;align=center;verticalAlign=middle;whiteSpace=wrap;rounded=0;rotation=-90;" vertex="1" parent="1">
          <mxGeometry x="400" y="100" width="60" height="30" as="geometry" />
        </mxCell>
        <mxCell id="Yc-3bs9THZqJO7N6kJPz-15" value="Senzor reaguje" style="text;html=1;strokeColor=none;fillColor=none;align=center;verticalAlign=middle;whiteSpace=wrap;rounded=0;" vertex="1" parent="1">
          <mxGeometry x="350" y="180" width="90" height="30" as="geometry" />
        </mxCell>
        <mxCell id="Yc-3bs9THZqJO7N6kJPz-16" style="edgeStyle=orthogonalEdgeStyle;rounded=0;orthogonalLoop=1;jettySize=auto;html=1;entryX=0.5;entryY=0;entryDx=0;entryDy=0;" edge="1" parent="1" source="Yc-3bs9THZqJO7N6kJPz-17" target="Yc-3bs9THZqJO7N6kJPz-8">
          <mxGeometry relative="1" as="geometry" />
        </mxCell>
        <mxCell id="Yc-3bs9THZqJO7N6kJPz-17" value="Nadřazený systém dostane informaci&amp;nbsp;" style="rounded=1;whiteSpace=wrap;html=1;" vertex="1" parent="1">
          <mxGeometry x="290" y="210" width="120" height="60" as="geometry" />
        </mxCell>
        <mxCell id="Yc-3bs9THZqJO7N6kJPz-18" style="edgeStyle=orthogonalEdgeStyle;rounded=0;orthogonalLoop=1;jettySize=auto;html=1;exitX=0.5;exitY=1;exitDx=0;exitDy=0;endArrow=none;endFill=0;" edge="1" parent="1" source="Yc-3bs9THZqJO7N6kJPz-19">
          <mxGeometry relative="1" as="geometry">
            <mxPoint x="350" y="570" as="targetPoint" />
          </mxGeometry>
        </mxCell>
        <mxCell id="Yc-3bs9THZqJO7N6kJPz-19" value="Senzor se vrátí do původního stavu" style="rounded=1;whiteSpace=wrap;html=1;" vertex="1" parent="1">
          <mxGeometry x="290" y="480" width="120" height="60" as="geometry" />
        </mxCell>
      </root>
    </mxGraphModel>
  </diagram>
</mxfile>
